<svg width="24" height="24" viewBox="0 0 24 24" fill="none" xmlns="http://www.w3.org/2000/svg">
<path fill-rule="evenodd" clip-rule="evenodd" d="M12 5.54826C10.7255 5.54826 9.69231 6.58812 9.69231 7.87085C9.69231 9.15357 10.7255 10.1934 12 10.1934C13.2745 10.1934 14.3077 9.15357 14.3077 7.87085C14.3077 6.58812 13.2745 5.54826 12 5.54826ZM8.15385 7.87085C8.15385 5.73297 9.87583 3.99988 12 3.99988C14.1242 3.99988 15.8462 5.73297 15.8462 7.87085C15.8462 10.0087 14.1242 11.7418 12 11.7418C9.87583 11.7418 8.15385 10.0087 8.15385 7.87085Z" fill="#030D45"/>
<path fill-rule="evenodd" clip-rule="evenodd" d="M10.4825 14.8386C8.91318 14.8386 7.64103 16.119 7.64103 17.6984C7.64103 17.7291 7.64361 17.754 7.64706 17.7726C7.64752 17.775 7.64798 17.7774 7.64844 17.7795C8.05927 18.0083 9.22185 18.4515 12 18.4515C14.7781 18.4515 15.9407 18.0083 16.3516 17.7795C16.352 17.7774 16.3525 17.775 16.3529 17.7726C16.3564 17.754 16.359 17.7291 16.359 17.6984C16.359 16.119 15.0868 14.8386 13.5175 14.8386H10.4825ZM6.10256 17.6984C6.10256 15.2638 8.06352 13.2902 10.4825 13.2902H13.5175C15.9365 13.2902 17.8974 15.2638 17.8974 17.6984C17.8974 18.1328 17.7512 18.7483 17.17 19.0921C16.4639 19.5098 15.0065 19.9999 12 19.9999C8.99348 19.9999 7.53615 19.5098 6.82998 19.0921C6.24882 18.7483 6.10256 18.1328 6.10256 17.6984Z" fill="#030D45"/>
<path fill-rule="evenodd" clip-rule="evenodd" d="M16.642 5.60434C16.7529 5.19157 17.1752 4.94739 17.5853 5.05895C18.9891 5.4408 19.9487 6.82826 19.9487 8.38697C19.9487 10.0343 18.8254 11.5422 17.2199 11.7363C16.7981 11.7873 16.4151 11.4845 16.3645 11.06C16.3138 10.6354 16.6147 10.2499 17.0365 10.199C17.7387 10.1141 18.4103 9.38999 18.4103 8.38697C18.4103 7.43479 17.8314 6.72984 17.1839 6.55371C16.7738 6.44215 16.5312 6.0171 16.642 5.60434Z" fill="#030D45"/>
<path fill-rule="evenodd" clip-rule="evenodd" d="M18.4245 13.9162C18.5058 13.4965 18.9098 13.2227 19.3267 13.3045C20.8794 13.6093 22 14.9783 22 16.5704V16.989C22 17.3863 21.8816 17.9867 21.3303 18.3414C20.9857 18.5631 20.4635 18.7915 19.6739 18.9522C19.2575 19.037 18.8517 18.766 18.7674 18.3469C18.6832 17.9279 18.9524 17.5194 19.3688 17.4346C19.9544 17.3154 20.2853 17.1655 20.4558 17.065L20.456 17.0637C20.4592 17.045 20.4615 17.02 20.4615 16.989V16.5704C20.4615 15.7192 19.8624 14.9872 19.0322 14.8243C18.6153 14.7424 18.3432 14.3359 18.4245 13.9162Z" fill="#030D45"/>
<path fill-rule="evenodd" clip-rule="evenodd" d="M7.35797 11.1696C7.24713 11.5824 6.82481 11.8266 6.41469 11.715C5.01092 11.3332 4.05128 9.94569 4.05128 8.38697C4.05128 6.7396 5.1746 5.23175 6.78005 5.03766C7.20186 4.98667 7.58487 5.28947 7.63554 5.714C7.6862 6.13852 7.38534 6.524 6.96354 6.575C6.2613 6.65989 5.58974 7.38395 5.58974 8.38697C5.58974 9.33916 6.16857 10.0441 6.81608 10.2202C7.2262 10.3318 7.46882 10.7568 7.35797 11.1696Z" fill="#030D45"/>
<path fill-rule="evenodd" clip-rule="evenodd" d="M5.57552 13.9162C5.4942 13.4965 5.09025 13.2227 4.67327 13.3045C3.1206 13.6093 2 14.9783 2 16.5704V16.989C2 17.3863 2.11838 17.9867 2.66968 18.3414C3.01428 18.5631 3.53653 18.7915 4.32609 18.9522C4.74249 19.037 5.14834 18.766 5.23259 18.3469C5.31683 17.9279 5.04757 17.5194 4.63117 17.4346C4.04556 17.3154 3.71472 17.1655 3.54423 17.065L3.544 17.0637C3.54082 17.045 3.53846 17.02 3.53846 16.989V16.5704C3.53846 15.7192 4.13761 14.9872 4.96776 14.8243C5.38474 14.7424 5.65684 14.3359 5.57552 13.9162Z" fill="#030D45"/>
</svg>
