<svg width="24" height="24" viewBox="0 0 24 24" fill="none" xmlns="http://www.w3.org/2000/svg">
<path fill-rule="evenodd" clip-rule="evenodd" d="M12.7166 3.79547C12.2835 3.49722 11.7165 3.49722 11.2834 3.79547L4.14336 8.71216C3.81027 8.94152 3.60747 9.31115 3.59247 9.70804C3.54064 11.08 3.4857 13.4825 3.63658 15.1878C3.7504 16.4742 4.05336 18.1747 4.29944 19.4257C4.41371 20.0066 4.91937 20.4285 5.52037 20.4285H8.84433C8.98594 20.4285 9.10074 20.3112 9.10074 20.1665V15.9754C9.10074 14.9627 9.90433 14.1418 10.8956 14.1418H13.4091C14.4004 14.1418 15.204 14.9627 15.204 15.9754V20.1665C15.204 20.3112 15.3188 20.4285 15.4604 20.4285H18.4796C19.0806 20.4285 19.5863 20.0066 19.7006 19.4257C19.9466 18.1747 20.2496 16.4742 20.3634 15.1878C20.5143 13.4825 20.4594 11.08 20.4075 9.70804C20.3925 9.31115 20.1897 8.94152 19.8566 8.71216L12.7166 3.79547ZM10.4235 2.49223C11.3764 1.83609 12.6236 1.83608 13.5765 2.49223L20.7165 7.40892C21.4457 7.91104 21.9104 8.73658 21.9448 9.64742C21.9966 11.0178 22.0564 13.512 21.8956 15.3293C21.7738 16.7067 21.4561 18.4786 21.2089 19.7353C20.9461 21.0711 19.7924 22.0001 18.4796 22.0001H15.4604C14.4691 22.0001 13.6655 21.1792 13.6655 20.1665V15.9754C13.6655 15.8307 13.5507 15.7135 13.4091 15.7135H10.8956C10.754 15.7135 10.6392 15.8307 10.6392 15.9754V20.1665C10.6392 21.1792 9.83561 22.0001 8.84433 22.0001H5.52037C4.20761 22.0001 3.05389 21.0711 2.79113 19.7353C2.54392 18.4786 2.22624 16.7067 2.10437 15.3293C1.94358 13.512 2.00338 11.0178 2.05515 9.64742C2.08957 8.73658 2.55427 7.91104 3.28346 7.40892L10.4235 2.49223Z" fill="#030D45"/>
</svg>
